<svg xmlns="http://www.w3.org/2000/svg" viewBox="0 0 100 125" x="0px" y="0px"><title>Artboard 2</title><g data-name="Hamburger, hamburger menu, lines, menu"><path d="M25,31.5H55a2.5,2.5,0,0,0,0-5H25a2.5,2.5,0,0,0,0,5Z"/><path d="M75,47.5H25a2.5,2.5,0,0,0,0,5H75a2.5,2.5,0,0,0,0-5Z"/><path d="M55,68.5H25a2.5,2.5,0,0,0,0,5H55a2.5,2.5,0,0,0,0-5Z"/></g><text x="0" y="115" fill="#000000" font-size="5px" font-weight="bold" font-family="'Helvetica Neue', Helvetica, Arial-Unicode, Arial, Sans-serif">Created by Manglayang studio</text><text x="0" y="120" fill="#000000" font-size="5px" font-weight="bold" font-family="'Helvetica Neue', Helvetica, Arial-Unicode, Arial, Sans-serif">from the Noun Project</text></svg>